<svg width="20" height="21" viewBox="0 0 20 21" fill="none" xmlns="http://www.w3.org/2000/svg">
<path d="M1 18V9.02262C1 8.38042 1.30839 7.77727 1.82902 7.40127L8.82902 2.34571C9.52805 1.84085 10.4719 1.84085 11.171 2.34571L18.171 7.40127C18.6916 7.77727 19 8.38042 19 9.02262V18C19 19.1046 18.1044 20 16.9999 20H14.5001C13.3956 20 12.5 19.1046 12.5 18V17C12.5 15.8954 11.6046 15 10.5 15H10H9.5C8.39543 15 7.5 15.8954 7.5 17V18C7.5 19.1046 6.60457 20 5.5 20H3C1.89543 20 1 19.1046 1 18Z" fill="black" stroke="black" stroke-width="2" stroke-linejoin="round"/>
</svg>
