<svg width="20" height="20" viewBox="0 0 20 20" fill="none" xmlns="http://www.w3.org/2000/svg">
<path d="M10 0.75C12.3472 0.75 14.25 2.65279 14.25 5C14.25 7.34721 12.3472 9.25 10 9.25C7.65279 9.25 5.75 7.34721 5.75 5C5.75 2.65279 7.65279 0.75 10 0.75Z" stroke="black" stroke-width="1.5"/>
<path d="M9.65267 10.063C4.85328 10.9646 2.85606 12.6549 1.6157 16.6041C1.23422 17.8188 2.20033 19 3.47344 19H16.6374C17.8738 19 18.832 17.8809 18.5056 16.6883C17.3728 12.5483 15.2391 10.9721 10.3473 10.0627C10.1194 10.0203 9.88052 10.0202 9.65267 10.063Z" stroke="black" stroke-width="1.5"/>
</svg>
